PathFileType	4	(X/Y/Z)	Patient4_TMGait_0pt4_03_left_01.trc.trc
DataRate	CameraRate	NumFrames	NumMarkers	Units	OrigDataRate	OrigDataStartFrame	OrigNumFrames
75.675675675676	75.675675675676	4	33	mm	75.675675675676	18	       141
Frame#	Time	Sacral			L.Shoulder			Chest			R.Shoulder			Neck			R.ASIS			L.ASIS			R.Thigh.Superior			R.Thigh.Lateral			R.Thigh.Inferior			R.Patella			L.Thigh.Superior			L.Thigh.Lateral			L.Thigh.Inferior			L.Patella			L.Shank.Superior			L.Shank.Lateral			L.Shank.Inferior			R.Shank.Superior			R.Shank.Lateral			R.Shank.Inferior			R.Heel			R.Midfoot.Superior			R.Midfoot.Lateral			R.Toe			L.Heel			L.Midfoot.Lateral			L.Midfoot.Superior			L.Toe			L.Elbow			L.Wrist			R.Elbow			R.Wrist			
		X1	Y1	Z1	X2	Y2	Z2	X3	Y3	Z3	X4	Y4	Z4	X5	Y5	Z5	X6	Y6	Z6	X7	Y7	Z7	X8	Y8	Z8	X9	Y9	Z9	X10	Y10	Z10	X11	Y11	Z11	X12	Y12	Z12	X13	Y13	Z13	X14	Y14	Z14	X15	Y15	Z15	X16	Y16	Z16	X17	Y17	Z17	X18	Y18	Z18	X19	Y19	Z19	X20	Y20	Z20	X21	Y21	Z21	X22	Y22	Z22	X23	Y23	Z23	X24	Y24	Z24	X25	Y25	Z25	X26	Y26	Z26	X27	Y27	Z27	X28	Y28	Z28	X29	Y29	Z29	X30	Y30	Z30	X31	Y31	Z31	X32	Y32	Z32	X33	Y33	Z33	

18	1.054642857143	814.526166674159	1005.880299580175	542.106034157997	957.970266798712	1435.904835469581	341.157650271684	1088.762044005793	1367.137364915983	480.655601366874	1038.246557093341	1438.811126342097	667.614580469959	965.942115890211	1495.781764263806	498.621703242369	1055.694627128990	941.305750471978	626.383241700474	1006.306028178128	965.903971227722	355.394629887464	1064.698693374103	732.052514818810	595.572056733154	974.312538881994	631.000099022243	664.876484185808	1033.320427934170	571.486870332133	579.303034355380	1021.424194113939	486.223259491489	585.673051952936	1087.409776754763	780.431458042018	378.093368156332	1039.829764977997	654.676954549880	296.601118175742	1146.140088637478	596.022399374390	352.572551768901	1173.918682913227	531.009219577372	344.948750509729	1154.466908722354	458.546525166673	333.601517974272	1081.839443787066	333.199515092843	279.970070393786	1166.651349996032	228.867892784386	328.437336351161	987.762970218310	399.214413671583	593.861379854159	912.975538223816	300.020309517469	659.687005904960	942.905836499691	203.387871683829	592.367444775107	798.776224486673	43.366794254968	566.839495658015	970.821743740632	95.850946589234	597.376734730037	884.101190567314	36.816679828760	639.119844084443	1092.257289826496	41.696731610541	621.559372721341	1080.784648789581	48.473956607637	363.477323360080	1151.369254562683	56.566689496706	281.020942206726	1222.486952499893	134.363547277875	302.550745150447	1354.813780944150	107.441097284347	269.366423839009	838.346404081170	1102.402212987390	242.650345344124	848.946689968876	839.520261422463	236.588591013835	1156.878448614018	1112.796920075695	773.333074165051	1384.035701613313	1136.520164639189	666.301129269383	
19	1.067857142857	814.640555744631	1005.060957261998	539.453831537785	957.094795804562	1435.249516388885	338.749887963491	1087.756810704407	1366.875005298580	478.552173786307	1036.609898877735	1438.405282999450	665.350278992388	964.676398120762	1495.149691175140	496.275245000433	1055.552541142010	940.979998618536	624.838883709453	1007.152678918859	964.797551906140	353.560105543133	1063.196161040600	731.256181110378	594.494119707172	971.779978458508	630.813763098037	663.778314516574	1030.536288552008	570.737523574332	578.596879924132	1017.889533300495	485.548132383086	584.869034769801	1088.258767084386	778.803989560544	376.729526329738	1039.220323005335	652.214866065384	297.004489368393	1145.690519150059	593.691878903039	352.358436517332	1172.460420763524	527.888817152606	345.652817584610	1151.988017469038	455.104682391694	334.900129611351	1077.240083571306	330.787179621290	282.138569476615	1160.129391700395	225.374329458556	331.225256858766	983.865195832012	398.755899495225	593.249838761544	908.587658073161	300.044991134129	659.315756931561	938.051681617377	203.137674965285	592.123127719979	793.417547584951	43.327491067552	566.847847504178	965.434055157616	95.817998932829	597.352485162833	878.719780372853	36.773565062739	639.097292827467	1086.870384920398	41.727351744696	621.568082347032	1071.019975080552	47.295594631958	367.298516110340	1141.541666561997	53.663899488091	284.713751210868	1214.261875049227	129.806175358402	305.953518347857	1345.841196303009	99.964033006260	272.666793781023	834.631689016716	1102.575983093476	242.492183639859	843.317776589482	839.486688987296	238.397458551462	1158.761987474181	1113.582617986429	769.563143337271	1384.370861747948	1143.885239440665	661.543165325634	
20	1.081071428571	814.928876744102	1004.088939844692	536.560211159501	956.214459514146	1434.437453170706	336.110333830087	1086.735135562676	1366.586229806779	476.283014470138	1034.810205808648	1437.917780591585	662.914605387136	963.333666430394	1494.405195395935	493.707081431587	1055.603535789300	940.583650490156	623.163658561482	1008.276142833766	963.550382586314	351.624786641015	1061.964166508322	730.388509352447	593.302646333463	969.512485703638	630.565163262963	662.572135327797	1028.006248501728	569.909511698834	577.769676560255	1014.594543540984	484.769284107030	583.939828789200	1089.258233959201	776.836707958747	375.320294983936	1038.584786200417	649.523799237274	297.451915467651	1145.114121019678	591.021976592617	352.370040707650	1170.669749034520	524.271459517442	346.616236430763	1149.022216797627	451.157604792005	336.382736703970	1071.871789466698	328.065154591200	284.388114520038	1152.492570101197	221.365485178831	334.206672489161	980.170325006581	398.207533689634	592.536556692729	904.362823746401	300.037449493215	658.868780219176	933.269166681842	202.826604110300	591.821319807320	788.064128887434	43.271970456909	566.858292923125	960.035240220751	95.780348907282	597.319198187012	873.340077474899	36.722618404797	639.078267304818	1081.483880306178	41.753107764409	621.574636892005	1059.575581151292	45.950067386881	371.053888867854	1130.210342805726	50.465234661626	288.472785925172	1204.704359102287	124.652335928245	309.694372591595	1335.537604175597	91.511866285472	276.542844362820	831.362675866785	1102.447616210332	242.071718192970	838.428193719673	839.201233297132	239.686527597001	1160.080810897224	1114.221751390249	766.001214502931	1384.185622375527	1150.392224000914	657.199366090926	
21	1.094285714286	815.361980320368	1003.001103894832	533.458484837214	955.360216035747	1433.483738880195	333.239379213588	1085.724855178775	1366.273568665018	473.844702363728	1032.891488934315	1437.364772203075	660.305820018948	961.950845084092	1493.570714127395	490.915361219191	1055.830153744535	940.120137790215	621.354388106134	1009.625786380395	962.206662736005	349.596429973516	1061.029353101989	729.457862579045	592.000079062654	967.549748637185	630.249327050215	661.245999754657	1025.764769751469	569.003951944417	576.796322403112	1011.586913786873	483.882257106894	582.864359362938	1090.314247323137	774.554840452051	373.911471059959	1037.875243432948	646.710953386557	297.878814347974	1144.333899731608	588.084064626467	352.601257405881	1168.511248509119	520.306942386035	347.806876076719	1145.649879213195	446.894404378806	337.956282885079	1066.037953207714	325.121479467313	286.566092645090	1144.195202125861	217.064156240285	337.226057002920	976.709943376853	397.567397359838	591.702230680913	900.329881946541	300.004864685588	658.339075083493	928.574499945703	202.458861406095	591.457141335702	782.718825093315	43.207804906734	566.874671509638	954.632859325837	95.741291257941	597.276922423503	867.967380114240	36.664180039818	639.062833961696	1076.103615669546	41.766165588544	621.580712489187	1047.198758045010	44.506302703104	374.528662335388	1118.123866976452	47.185048800937	292.091834524091	1194.412370083597	119.237230584313	313.604191505468	1324.560165856399	82.671830280377	280.838648478875	828.625245425238	1101.998413955037	241.334963762364	834.318922150303	838.641464548321	240.400369158119	1160.829163162461	1114.680630252087	762.670251238932	1383.543655982005	1155.959411375562	653.287124962689	
